<svg width="31" height="31" viewBox="0 0 31 31" fill="none" xmlns="http://www.w3.org/2000/svg">
<path d="M14.4628 3.48118C14.7662 2.56855 16.0571 2.56855 16.3606 3.48118L18.5 9.91513C18.6359 10.3238 19.0182 10.5996 19.4489 10.5996H26.3221C27.2964 10.5996 27.6955 11.851 26.901 12.415L21.3805 16.3342C21.0219 16.5888 20.8717 17.0478 21.0105 17.4652L23.1285 23.8346C23.4335 24.7519 22.3889 25.5252 21.6007 24.9656L15.9906 20.9827C15.6439 20.7366 15.1795 20.7366 14.8328 20.9827L9.2227 24.9656C8.4345 25.5252 7.38989 24.7519 7.69489 23.8346L9.81286 17.4652C9.95163 17.0478 9.80145 16.5888 9.44283 16.3342L3.92237 12.415C3.12791 11.851 3.52695 10.5996 4.50126 10.5996H11.3745C11.8052 10.5996 12.1875 10.3238 12.3234 9.91513L14.4628 3.48118Z" fill="#FFCC47"/>
</svg>
